<svg xmlns="http://www.w3.org/2000/svg" width="27" height="24" viewBox="0 0 27 24">
  <metadata><?xpacket begin="﻿" id="W5M0MpCehiHzreSzNTczkc9d"?>
<x:xmpmeta xmlns:x="adobe:ns:meta/" x:xmptk="Adobe XMP Core 5.6-c138 79.159824, 2016/09/14-01:09:01        ">
   <rdf:RDF xmlns:rdf="http://www.w3.org/1999/02/22-rdf-syntax-ns#">
      <rdf:Description rdf:about=""/>
   </rdf:RDF>
</x:xmpmeta>
                                                                                                    
                                                                                                    
                                                                                                    
                                                                                                    
                                                                                                    
                                                                                                    
                                                                                                    
                                                                                                    
                                                                                                    
                                                                                                    
                                                                                                    
                                                                                                    
                                                                                                    
                                                                                                    
                                                                                                    
                                                                                                    
                                                                                                    
                                                                                                    
                                                                                                    
                                                                                                    
                           
<?xpacket end="w"?></metadata>
<defs>
    <style>
      .cls-1 {
        fill: #fff;
        fill-rule: evenodd;
      }
    </style>
  </defs>
  <path id="email" class="cls-1" d="M678.224,1550.62c3.66,3.1,10.081,8.56,11.969,10.26a1.232,1.232,0,0,0,.807.34,1.182,1.182,0,0,0,.806-0.34c1.889-1.7,8.31-7.16,11.97-10.26a0.547,0.547,0,0,0,.078-0.76,2.191,2.191,0,0,0-1.743-.86H679.889a2.191,2.191,0,0,0-1.743.86A0.547,0.547,0,0,0,678.224,1550.62Zm25.787,1.68a0.557,0.557,0,0,0-.593.08c-4.058,3.44-9.238,7.85-10.868,9.32a2.242,2.242,0,0,1-3.1,0c-1.737-1.56-7.554-6.51-10.867-9.32a0.556,0.556,0,0,0-.915.43v13.97a2.226,2.226,0,0,0,2.222,2.22h22.222a2.226,2.226,0,0,0,2.222-2.22v-13.97A0.56,0.56,0,0,0,704.011,1552.3Z" transform="translate(-677.5 -1547)"/>
</svg>
