<svg xmlns="http://www.w3.org/2000/svg" width="27" height="24" viewBox="0 0 27 24">
  <metadata><?xpacket begin="﻿" id="W5M0MpCehiHzreSzNTczkc9d"?>
<x:xmpmeta xmlns:x="adobe:ns:meta/" x:xmptk="Adobe XMP Core 5.6-c138 79.159824, 2016/09/14-01:09:01        ">
   <rdf:RDF xmlns:rdf="http://www.w3.org/1999/02/22-rdf-syntax-ns#">
      <rdf:Description rdf:about=""/>
   </rdf:RDF>
</x:xmpmeta>
                                                                                                    
                                                                                                    
                                                                                                    
                                                                                                    
                                                                                                    
                                                                                                    
                                                                                                    
                                                                                                    
                                                                                                    
                                                                                                    
                                                                                                    
                                                                                                    
                                                                                                    
                                                                                                    
                                                                                                    
                                                                                                    
                                                                                                    
                                                                                                    
                                                                                                    
                                                                                                    
                           
<?xpacket end="w"?></metadata>
<defs>
    <style>
      .cls-1 {
        fill: #fff;
        fill-rule: evenodd;
      }
    </style>
  </defs>
  <path id="home" class="cls-1" d="M678.53,1610.5a0.487,0.487,0,0,0,.545.5c0.707,0,6.557-.01,6.557-0.01l0.01-4.66a0.686,0.686,0,0,1,.768-0.77h2.721a0.779,0.779,0,0,1,.953.77l-0.011,4.65h6.419a0.612,0.612,0,0,0,.688-0.63v-8.6l-9.046-6.98-9.6,6.98v8.75Zm-3.538-9.4s0.816,1.31,2.594,0l10.628-7.8,9.963,7.76c2.059,1.28,2.831,0,2.831,0L688.214,1591Zm22.944-7.82h-2.563l0.011,2.7,2.552,1.88v-4.58Z" transform="translate(-674.5 -1589)"/>
</svg>
