<svg xmlns="http://www.w3.org/2000/svg" width="27" height="24" viewBox="0 0 27 24">
  <metadata><?xpacket begin="﻿" id="W5M0MpCehiHzreSzNTczkc9d"?>
<x:xmpmeta xmlns:x="adobe:ns:meta/" x:xmptk="Adobe XMP Core 5.6-c138 79.159824, 2016/09/14-01:09:01        ">
   <rdf:RDF xmlns:rdf="http://www.w3.org/1999/02/22-rdf-syntax-ns#">
      <rdf:Description rdf:about=""/>
   </rdf:RDF>
</x:xmpmeta>
                                                                                                    
                                                                                                    
                                                                                                    
                                                                                                    
                                                                                                    
                                                                                                    
                                                                                                    
                                                                                                    
                                                                                                    
                                                                                                    
                                                                                                    
                                                                                                    
                                                                                                    
                                                                                                    
                                                                                                    
                                                                                                    
                                                                                                    
                                                                                                    
                                                                                                    
                                                                                                    
                           
<?xpacket end="w"?></metadata>
<defs>
    <style>
      .cls-1 {
        fill: #fff;
        fill-rule: evenodd;
      }
    </style>
  </defs>
  <path id="phone" class="cls-1" d="M693.35,1503h-10.7a1.626,1.626,0,0,0-1.621,1.62v20.76a1.626,1.626,0,0,0,1.621,1.62h10.7a1.626,1.626,0,0,0,1.621-1.62v-20.76A1.626,1.626,0,0,0,693.35,1503Zm-7.062,1.17h3.424a0.2,0.2,0,0,1,.2.2,0.2,0.2,0,0,1-.2.19h-3.424a0.2,0.2,0,0,1-.2-0.19A0.2,0.2,0,0,1,686.288,1504.17ZM688,1526.19a0.81,0.81,0,1,1,.81-0.81A0.809,0.809,0,0,1,688,1526.19Zm5.843-2.19H682.157v-18.43h11.686V1524Z" transform="translate(-674.5 -1503)"/>
</svg>
